<?xml version="1.0" encoding="UTF-8" standalone="no"?>
<!-- Generator: Adobe Illustrator 18.0.0, SVG Export Plug-In . SVG Version: 6.00 Build 0)  -->

<svg
   xmlns:dc="http://purl.org/dc/elements/1.1/"
   xmlns:cc="http://creativecommons.org/ns#"
   xmlns:rdf="http://www.w3.org/1999/02/22-rdf-syntax-ns#"
   xmlns:svg="http://www.w3.org/2000/svg"
   xmlns="http://www.w3.org/2000/svg"
   xmlns:sodipodi="http://sodipodi.sourceforge.net/DTD/sodipodi-0.dtd"
   xmlns:inkscape="http://www.inkscape.org/namespaces/inkscape"
   version="1.1"
   id="Livello_1"
   x="0px"
   y="0px"
   viewBox="0 0 1309.7 263.5"
   enable-background="new 0 0 1920 1080"
   xml:space="preserve"
   sodipodi:docname="spidchain.svg"
   width="1309.7"
   height="263.5"
   inkscape:version="0.92.2 5c3e80d, 2017-08-06"><metadata
     id="metadata35"><rdf:RDF><cc:Work
         rdf:about=""><dc:format>image/svg+xml</dc:format><dc:type
           rdf:resource="http://purl.org/dc/dcmitype/StillImage" /><dc:title></dc:title></cc:Work></rdf:RDF></metadata><defs
     id="defs33" /><sodipodi:namedview
     pagecolor="#ffffff"
     bordercolor="#666666"
     borderopacity="1"
     objecttolerance="10"
     gridtolerance="10"
     guidetolerance="10"
     inkscape:pageopacity="0"
     inkscape:pageshadow="2"
     inkscape:window-width="1366"
     inkscape:window-height="704"
     id="namedview31"
     showgrid="false"
     fit-margin-top="0"
     fit-margin-left="0"
     fit-margin-right="0"
     fit-margin-bottom="0"
     inkscape:zoom="0.1734375"
     inkscape:cx="666.5"
     inkscape:cy="97.1"
     inkscape:window-x="0"
     inkscape:window-y="27"
     inkscape:window-maximized="1"
     inkscape:current-layer="Livello_1" /><path
     d="m 222.4,190.9 c 27.4,0 41,-9.4 41,-28.1 0,-5.8 -1.2,-10.7 -3.6,-14.7 -2.4,-4.1 -5.7,-7.6 -9.9,-10.5 -4.1,-3 -8.9,-5.5 -14.2,-7.7 -5.3,-2.2 -10.9,-4.3 -16.9,-6.5 -6.8,-2.3 -13.3,-5 -19.4,-8 -6.1,-3 -11.4,-6.5 -15.9,-10.5 -4.5,-4 -8.1,-8.9 -10.7,-14.4 -2.6,-5.6 -3.9,-12.3 -3.9,-20.2 0,-16.4 5.6,-29.2 16.7,-38.3 11.2,-9.2 26.5,-13.8 46.2,-13.8 11.3,0 21.6,1.2 30.9,3.6 9.3,2.4 16.1,5.1 20.4,8 l -8.4,21.3 c -3.8,-2.3 -9.4,-4.6 -16.9,-6.9 -7.5,-2.2 -16.2,-3.4 -26.1,-3.4 -5,0 -9.7,0.5 -14,1.6 -4.3,1.1 -8.1,2.7 -11.3,4.9 -3.2,2.2 -5.8,4.9 -7.7,8.2 -1.9,3.3 -2.8,7.2 -2.8,11.7 0,5 1,9.3 3,12.7 2,3.4 4.8,6.4 8.4,9 3.6,2.6 7.8,5 12.6,7.2 4.8,2.2 10,4.3 15.8,6.5 8.1,3.2 15.5,6.5 22.3,9.7 6.8,3.2 12.6,7.1 17.6,11.6 4.9,4.5 8.8,9.9 11.5,16.1 2.7,6.2 4,13.7 4,22.5 0,16.4 -6,29 -18,37.8 -12,8.8 -28.8,13.2 -50.6,13.2 -7.4,0 -14.2,-0.5 -20.4,-1.5 -6.2,-1 -11.7,-2.2 -16.6,-3.5 -4.9,-1.3 -9,-2.8 -12.6,-4.3 -3.5,-1.5 -6.3,-2.8 -8.2,-3.9 l 7.8,-21.6 c 4.1,2.3 10.4,5 18.9,7.8 8.4,2.9 18.8,4.4 31,4.4 z"
     id="path2"
     inkscape:connector-curvature="0"
     style="fill:#428dcd" /><path
     d="m 444.6,139.6 c 0,10.6 -1.4,20.4 -4.2,29.4 -2.8,9 -6.9,16.7 -12.3,23.2 -5.4,6.5 -12,11.5 -19.8,15.1 -7.8,3.6 -16.8,5.4 -26.9,5.4 -8.1,0 -15.3,-1.1 -21.5,-3.2 -6.2,-2.2 -10.8,-4.2 -13.9,-6.2 v 60.2 l -25.1,-4 V 73.4 c 5.9,-1.4 13.4,-3 22.3,-4.7 8.9,-1.7 19.2,-2.6 30.9,-2.6 10.8,0 20.5,1.7 29.2,5.1 8.6,3.4 16,8.3 22.1,14.6 6.1,6.3 10.8,14 14.2,23.1 3.4,9.1 5,19.3 5,30.7 z m -26.1,0 c 0,-16.4 -4,-29 -12.1,-37.8 C 398.3,93 387.5,88.6 374,88.6 c -7.6,0 -13.5,0.3 -17.7,0.8 -4.2,0.5 -7.6,1.2 -10.1,1.9 v 88.6 c 3.1,2.5 7.5,5 13.2,7.3 5.8,2.3 12.1,3.5 18.9,3.5 7.2,0 13.4,-1.3 18.5,-3.9 5.1,-2.6 9.3,-6.2 12.6,-10.8 3.2,-4.6 5.6,-10 7,-16.2 1.3,-6.3 2.1,-13 2.1,-20.2 z"
     id="path4"
     inkscape:connector-curvature="0"
     style="fill:#428dcd" /><polygon
     points="773.5,442.7 798.6,437.7 798.6,578.1 773.5,583.1 "
     id="polygon6"
     style="fill:#428dcd"
     transform="translate(-293.5,-373.6)" /><path
     d="M 639,4.3 664.1,0 v 205.5 c -5.8,1.6 -13.1,3.2 -22.1,4.9 -9,1.6 -19.4,2.4 -31,2.4 -10.8,0 -20.5,-1.7 -29.2,-5.1 -8.6,-3.4 -16,-8.3 -22.1,-14.6 -6.1,-6.3 -10.8,-14 -14.2,-23.1 -3.3,-9.1 -5,-19.3 -5,-30.6 0,-10.8 1.4,-20.7 4.2,-29.7 2.8,-9 6.9,-16.7 12.3,-23.2 5.4,-6.5 12,-11.5 19.8,-15.1 7.8,-3.6 16.8,-5.4 26.9,-5.4 8.1,0 15.3,1.1 21.5,3.2 6.2,2.2 10.8,4.2 13.9,6.2 V 4.3 Z m 0,94.5 C 635.9,96.3 631.5,93.9 625.8,91.5 620,89.2 613.7,88 606.9,88 c -7.2,0 -13.4,1.3 -18.5,3.9 -5.1,2.6 -9.3,6.2 -12.6,10.8 -3.2,4.6 -5.6,10 -7,16.3 -1.4,6.3 -2.2,13.1 -2.2,20.2 0,16.4 4,29 12.1,37.9 8.1,8.9 18.9,13.4 32.4,13.4 6.8,0 12.6,-0.3 17.1,-0.9 4.6,-0.6 8.1,-1.3 10.7,-2 V 98.8 Z"
     id="path8"
     inkscape:connector-curvature="0"
     style="fill:#428dcd" /><path
     d="m 768.4,212.7 c -11.3,0 -21.3,-1.8 -29.8,-5.4 -8.6,-3.6 -15.8,-8.6 -21.6,-15.1 -5.9,-6.5 -10.2,-14.2 -13.1,-23.1 -2.9,-8.9 -4.3,-18.8 -4.3,-29.6 0,-10.8 1.6,-20.7 4.7,-29.7 3.1,-9 7.6,-16.8 13.4,-23.4 5.8,-6.6 12.8,-11.7 21.2,-15.4 8.4,-3.7 17.7,-5.5 27.9,-5.5 6.3,0 12.6,0.5 18.9,1.6 6.3,1.1 12.3,2.8 18.1,5.1 l -5.7,21.3 c -3.8,-1.8 -8.1,-3.2 -13.1,-4.3 -5,-1.1 -10.2,-1.6 -15.8,-1.6 -14,0 -24.8,4.4 -32.3,13.2 -7.5,8.8 -11.2,21.7 -11.2,38.6 0,7.6 0.9,14.5 2.6,20.8 1.7,6.3 4.4,11.7 8.1,16.2 3.7,4.5 8.4,8 14.2,10.4 5.8,2.4 12.8,3.6 21.1,3.6 6.7,0 12.7,-0.6 18.1,-1.9 5.4,-1.3 9.6,-2.6 12.7,-4 l 3.5,21.1 c -1.4,0.9 -3.5,1.8 -6.2,2.6 -2.7,0.8 -5.8,1.5 -9.2,2.2 -3.4,0.6 -7.1,1.2 -10.9,1.6 -4,0.5 -7.7,0.7 -11.3,0.7 z"
     id="path10"
     inkscape:connector-curvature="0"
     style="fill:#848484" /><path
     d="M 832.9,209.5 V 4.3 L 858,0 v 71.8 c 4.7,-1.8 9.7,-3.2 15,-4.2 5.3,-1 10.6,-1.5 15.8,-1.5 11.2,0 20.4,1.6 27.8,4.7 7.4,3.2 13.3,7.6 17.7,13.2 4.4,5.7 7.5,12.5 9.3,20.4 1.8,7.9 2.7,16.7 2.7,26.2 v 78.8 H 921.2 V 136 c 0,-8.6 -0.6,-16 -1.8,-22.1 -1.2,-6.1 -3.1,-11.1 -5.8,-14.9 -2.7,-3.8 -6.3,-6.5 -10.8,-8.2 -4.5,-1.7 -10.1,-2.6 -16.7,-2.6 -2.7,0 -5.5,0.2 -8.4,0.5 -2.9,0.4 -5.6,0.8 -8.2,1.2 -2.6,0.5 -5,0.9 -7,1.5 -2.1,0.5 -3.6,1 -4.5,1.4 v 116.6 h -25.1 z"
     id="path12"
     inkscape:connector-curvature="0"
     style="fill:#848484" /><path
     d="m 1032.4,65.6 c 10.1,0 18.6,1.3 25.5,3.9 6.9,2.6 12.5,6.3 16.7,11.1 4.2,4.8 7.2,10.4 9,17 1.8,6.6 2.7,13.8 2.7,21.7 v 87.8 c -2.2,0.4 -5.2,0.9 -9,1.5 -3.9,0.6 -8.2,1.2 -13.1,1.8 -4.9,0.5 -10.1,1 -15.8,1.5 -5.7,0.4 -11.3,0.7 -16.9,0.7 -7.9,0 -15.2,-0.8 -21.9,-2.4 -6.7,-1.6 -12.4,-4.2 -17.3,-7.7 -4.9,-3.5 -8.6,-8.1 -11.3,-13.9 -2.7,-5.8 -4,-12.7 -4,-20.8 0,-7.7 1.6,-14.4 4.7,-20 3.1,-5.6 7.4,-10.1 12.8,-13.5 5.4,-3.4 11.7,-5.9 18.9,-7.6 7.2,-1.6 14.8,-2.4 22.7,-2.4 2.5,0 5.1,0.1 7.8,0.4 2.7,0.3 5.3,0.6 7.7,1.1 2.4,0.5 4.5,0.9 6.3,1.2 1.8,0.4 3.1,0.6 3.8,0.8 v -7 c 0,-4.1 -0.5,-8.2 -1.3,-12.3 -0.9,-4 -2.5,-7.6 -4.9,-10.8 -2.3,-3.1 -5.5,-5.7 -9.6,-7.6 -4.1,-1.9 -9.3,-2.8 -15.8,-2.8 -8.3,0 -15.5,0.6 -21.7,1.8 -6.2,1.2 -10.8,2.4 -13.9,3.6 l -3,-20.8 c 3.2,-1.4 8.6,-2.8 16.2,-4.2 7.7,-1.4 15.9,-2.1 24.7,-2.1 z m 2.2,125.8 c 5.9,0 11.2,-0.1 15.8,-0.4 4.6,-0.3 8.4,-0.8 11.5,-1.5 v -41.8 c -1.8,-0.9 -4.7,-1.7 -8.8,-2.3 -4,-0.6 -9,-0.9 -14.7,-0.9 -3.8,0 -7.8,0.3 -12,0.8 -4.2,0.5 -8.1,1.7 -11.6,3.4 -3.5,1.7 -6.4,4 -8.8,7 -2.3,3 -3.5,6.9 -3.5,11.7 0,9 2.9,15.3 8.6,18.8 5.8,3.5 13.6,5.2 23.5,5.2 z"
     id="path14"
     inkscape:connector-curvature="0"
     style="fill:#848484" /><polygon
     points="1446.6,578.1 1421.5,583.1 1421.5,448.7 1446.6,443.7 "
     id="polygon16"
     style="fill:#848484"
     transform="translate(-293.5,-373.6)" /><path
     d="m 1196.3,73.2 c 5.8,-1.4 13.4,-3 23,-4.6 9.5,-1.6 20.5,-2.4 32.9,-2.4 11.2,0 20.4,1.6 27.8,4.7 7.4,3.2 13.3,7.6 17.7,13.2 4.4,5.7 7.5,12.5 9.3,20.4 1.8,7.9 2.7,16.7 2.7,26.2 v 78.8 h -25.1 v -73.4 c 0,-8.6 -0.6,-16 -1.8,-22.1 -1.2,-6.1 -3.1,-11.1 -5.8,-14.9 -2.7,-3.8 -6.3,-6.5 -10.8,-8.2 -4.5,-1.7 -10.1,-2.6 -16.7,-2.6 -2.7,0 -5.5,0.1 -8.4,0.3 -2.9,0.2 -5.6,0.4 -8.2,0.7 -2.6,0.3 -5,0.6 -7,0.9 -2.1,0.4 -3.6,0.6 -4.5,0.8 v 118.5 h -25.1 z"
     id="path18"
     inkscape:connector-curvature="0"
     style="fill:#848484" /><path
     d="m 68.6,148.1 v 0 c -3.9,0 -7.1,-3.2 -7.1,-7.1 V 85.7 c 0,-3.9 3.2,-7.1 7.1,-7.1 v 0 c 3.9,0 7.1,3.2 7.1,7.1 V 141 c 0,4 -3.2,7.1 -7.1,7.1 z"
     id="path20"
     inkscape:connector-curvature="0"
     style="fill:#848484" /><path
     d="m 68.5,44.7 v 0 c -14.3,0 -26.8,8.3 -32.8,20.4 -2.9,5.8 1.4,12.6 7.9,12.6 v 0 c 3.1,0 6,-1.7 7.6,-4.4 C 54.8,66.9 61.8,62 68.7,62 v 0 c 11,0 20,9 20,20 v 61.7 c 0,11 -9,20 -20,20 v 0 c -11,0 -20,-9 -20,-20 V 106 c 0,-4.6 -3.8,-8.4 -8.4,-8.4 v 0 c -4.6,0 -8.4,3.8 -8.4,8.4 v 38.2 c 0,20.2 16.5,36.7 36.7,36.7 v 0 c 20.2,0 36.7,-16.5 36.7,-36.7 V 81.4 C 105.2,61.3 88.7,44.7 68.5,44.7 Z"
     id="path22"
     inkscape:connector-curvature="0"
     style="fill:#428dcd" /><path
     d="m 114.8,177 c -2.9,-1.4 -6.9,-0.6 -9,1.8 -0.2,0.3 -0.5,0.5 -0.7,0.8 -9.1,10 -21.1,15 -36.3,15 h -0.5 c -15.1,0 -27.2,-5 -36.3,-15 -9.1,-9.9 -13.6,-23.2 -13.6,-39.8 V 86.4 c 0,-16.7 4.5,-29.9 13.6,-39.8 9.1,-10 21.1,-15 36.3,-15 h 0.5 c 15.1,0 27.2,5 36.3,15 9.1,9.9 13.6,23.2 13.6,39.8 v 53.4 c 0,2.7 -0.1,5.4 -0.4,7.9 -0.4,3.8 1.7,7.3 5.1,9 v 0 c 5.8,2.9 12.7,-0.9 13.3,-7.4 0.3,-3.1 0.4,-6.3 0.4,-9.5 V 86.4 C 137.1,64.8 130.7,47.2 118,33.6 105.3,20 88.9,13.1 68.8,13.1 H 68.3 C 48.2,13.1 31.8,19.9 19.1,33.6 6.4,47.2 0,64.9 0,86.4 v 53.4 c 0,21.6 6.4,39.2 19.1,52.8 12.7,13.6 29.1,20.5 49.2,20.5 h 0.5 c 20.1,0 36.5,-6.8 49.2,-20.5 0,0 0.1,-0.1 0.1,-0.1 4.4,-4.7 2.9,-12.3 -2.9,-15.2 z"
     id="path24"
     inkscape:connector-curvature="0"
     style="fill:#428dcd" /><polygon
     points="773.8,406.4 798.5,401.4 798.5,422.7 773.8,427.7 "
     id="polygon26"
     style="fill:#428dcd"
     transform="translate(-293.5,-373.6)" /><polygon
     points="1421.6,412.6 1446.3,407.6 1446.3,428.9 1421.6,433.9 "
     id="polygon28"
     style="fill:#848484"
     transform="translate(-293.5,-373.6)" /></svg>